<svg xmlns="http://www.w3.org/2000/svg" xmlns:xlink="http://www.w3.org/1999/xlink" version="1.1" data-diagram-type="CLASS" style="width:1885px;height:1277px;background:#FFFFFF;" width="1885px" height="1277px" viewBox="0 0 1885 1277" zoomAndPan="magnify" preserveAspectRatio="none" contentStyleType="text/css"><?plantuml 1.2026.8?><defs/><g font-family="sans-serif" lengthAdjust="spacing"><g class="title" data-source-line="12"><text x="838.996" y="24.966" fill="#000" font-size="14" textLength="200.115" font-weight="700">EPANET Parser - Model Layer</text></g><!--cluster Components--><g class="cluster" data-qualified-name="Components" id="ent0005" data-source-line="62"><path d="M141,485.068 L302.285,485.068 A3.75,3.75 0 0 1 304.785,487.568 L311.785,510.136 L976,510.136 A2.5,2.5 0 0 1 978.5,512.636 L978.5,1163.568 A2.5,2.5 0 0 1 976,1166.068 L141,1166.068 A2.5,2.5 0 0 1 138.5,1163.568 L138.5,487.568 A2.5,2.5 0 0 1 141,485.068" style="stroke:#000;stroke-width:1.5;" fill="#FFFFE0"/><line x1="138.5" y1="510.136" x2="311.785" y2="510.136" style="stroke:#000;stroke-width:1.5;"/><text x="142.5" y="502.034" fill="#000" font-size="14" textLength="160.285" font-weight="700">Component collections</text></g><!--class WNTREPANETNode--><g class="entity" data-qualified-name="Components.WNTREPANETNode" id="ent0006" data-source-line="63"><rect x="192" y="531.068" width="189.001" height="132.272" fill="#FFFFE0" style="stroke:#181818;stroke-width:0.5;" rx="2.5" ry="2.5"/><ellipse cx="220.422" cy="547.068" rx="11" ry="11" fill="#ADD1B2" style="stroke:#181818;stroke-width:1;"/><path d="M223.39,552.709 Q222.812,553.005 222.172,553.146 Q221.531,553.302 220.828,553.302 Q218.328,553.302 217,551.662 Q215.687,550.005 215.687,546.88 Q215.687,543.755 217,542.099 Q218.328,540.443 220.828,540.443 Q221.531,540.443 222.172,540.599 Q222.828,540.755 223.39,541.052 L223.39,543.771 Q222.765,543.193 222.172,542.927 Q221.578,542.646 220.953,542.646 Q219.609,542.646 218.922,543.724 Q218.234,544.787 218.234,546.88 Q218.234,548.974 218.922,550.052 Q219.609,551.115 220.953,551.115 Q221.578,551.115 222.172,550.849 Q222.765,550.568 223.39,549.99 L223.39,552.709 Z " fill="#000"/><text x="237.404" y="552.5" fill="#000" font-size="14" textLength="127.175">WNTREPANETNode</text><line x1="193" y1="563.068" x2="380.001" y2="563.068" style="stroke:#181818;stroke-width:0.5;"/><text x="198" y="582.034" fill="#000" font-size="14" textLength="172.605">+node_types: Tuple[str, ...]</text><line x1="193" y1="590.136" x2="380.001" y2="590.136" style="stroke:#181818;stroke-width:1;"/><text x="198" y="609.102" fill="#000" font-size="14" textLength="177.001">+coordinates / type / name</text><text x="198" y="628.17" fill="#000" font-size="14" textLength="173.809">+emitter_coefficient / attrs</text><line x1="193" y1="636.272" x2="380.001" y2="636.272" style="stroke:#181818;stroke-width:1;"/><text x="198" y="655.238" fill="#000" font-size="14" textLength="162.147">Junction, Reservoir, Tank</text></g><!--class WNTREPANETLink--><g class="entity" data-qualified-name="Components.WNTREPANETLink" id="ent0007" data-source-line="72"><rect x="426.5" y="540.568" width="174.329" height="113.204" fill="#FFFFE0" style="stroke:#181818;stroke-width:0.5;" rx="2.5" ry="2.5"/><ellipse cx="452.162" cy="556.568" rx="11" ry="11" fill="#ADD1B2" style="stroke:#181818;stroke-width:1;"/><path d="M455.131,562.209 Q454.553,562.505 453.912,562.646 Q453.272,562.802 452.568,562.802 Q450.068,562.802 448.74,561.162 Q447.428,559.505 447.428,556.38 Q447.428,553.255 448.74,551.599 Q450.068,549.943 452.568,549.943 Q453.272,549.943 453.912,550.099 Q454.568,550.255 455.131,550.552 L455.131,553.271 Q454.506,552.693 453.912,552.427 Q453.318,552.146 452.693,552.146 Q451.35,552.146 450.662,553.224 Q449.975,554.287 449.975,556.38 Q449.975,558.474 450.662,559.552 Q451.35,560.615 452.693,560.615 Q453.318,560.615 453.912,560.349 Q454.506,560.068 455.131,559.49 L455.131,562.209 Z " fill="#000"/><text x="468.532" y="562" fill="#000" font-size="14" textLength="118.635">WNTREPANETLink</text><line x1="427.5" y1="572.568" x2="599.829" y2="572.568" style="stroke:#181818;stroke-width:0.5;"/><text x="432.5" y="591.534" fill="#000" font-size="14" textLength="162.329">+link_types: Tuple[str, ...]</text><line x1="427.5" y1="599.636" x2="599.829" y2="599.636" style="stroke:#181818;stroke-width:1;"/><text x="432.5" y="618.602" fill="#000" font-size="14" textLength="86.688">+type / name</text><line x1="427.5" y1="626.704" x2="599.829" y2="626.704" style="stroke:#181818;stroke-width:1;"/><text x="432.5" y="645.67" fill="#000" font-size="14" textLength="117.068">Pipe, Pump, Valve</text></g><!--class WNTREPANETCurve--><g class="entity" data-qualified-name="Components.WNTREPANETCurve" id="ent0008" data-source-line="80"><rect x="645.5" y="554.068" width="222.307" height="86.136" fill="#FFFFE0" style="stroke:#181818;stroke-width:0.5;" rx="2.5" ry="2.5"/><ellipse cx="687.706" cy="570.068" rx="11" ry="11" fill="#ADD1B2" style="stroke:#181818;stroke-width:1;"/><path d="M690.675,575.709 Q690.097,576.005 689.456,576.146 Q688.815,576.302 688.112,576.302 Q685.612,576.302 684.284,574.662 Q682.972,573.005 682.972,569.88 Q682.972,566.755 684.284,565.099 Q685.612,563.443 688.112,563.443 Q688.815,563.443 689.456,563.599 Q690.112,563.755 690.675,564.052 L690.675,566.771 Q690.05,566.193 689.456,565.927 Q688.862,565.646 688.237,565.646 Q686.893,565.646 686.206,566.724 Q685.518,567.787 685.518,569.88 Q685.518,571.974 686.206,573.052 Q686.893,574.115 688.237,574.115 Q688.862,574.115 689.456,573.849 Q690.05,573.568 690.675,572.99 L690.675,575.709 Z " fill="#000"/><text x="707.752" y="575.5" fill="#000" font-size="14" textLength="129.849">WNTREPANETCurve</text><line x1="646.5" y1="586.068" x2="866.807" y2="586.068" style="stroke:#181818;stroke-width:0.5;"/><text x="651.5" y="605.034" fill="#000" font-size="14" textLength="140.279">+type / name / points</text><line x1="646.5" y1="613.136" x2="866.807" y2="613.136" style="stroke:#181818;stroke-width:1;"/><text x="651.5" y="632.102" fill="#000" font-size="14" textLength="210.307">One of head, volume, efficiency.</text></g><!--class WNTREPANETPattern--><g class="entity" data-qualified-name="Components.WNTREPANETPattern" id="ent0009" data-source-line="86"><rect x="170.5" y="798.568" width="210.477" height="86.136" fill="#FFFFE0" style="stroke:#181818;stroke-width:0.5;" rx="2.5" ry="2.5"/><ellipse cx="202.67" cy="814.568" rx="11" ry="11" fill="#ADD1B2" style="stroke:#181818;stroke-width:1;"/><path d="M205.639,820.209 Q205.061,820.505 204.42,820.646 Q203.779,820.802 203.076,820.802 Q200.576,820.802 199.248,819.162 Q197.936,817.505 197.936,814.38 Q197.936,811.255 199.248,809.599 Q200.576,807.943 203.076,807.943 Q203.779,807.943 204.42,808.099 Q205.076,808.255 205.639,808.552 L205.639,811.271 Q205.014,810.693 204.42,810.427 Q203.826,810.146 203.201,810.146 Q201.858,810.146 201.17,811.224 Q200.483,812.287 200.483,814.38 Q200.483,816.474 201.17,817.552 Q201.858,818.615 203.201,818.615 Q203.826,818.615 204.42,818.349 Q205.014,818.068 205.639,817.49 L205.639,820.209 Z " fill="#000"/><text x="220.486" y="820" fill="#000" font-size="14" textLength="140.321">WNTREPANETPattern</text><line x1="171.5" y1="830.568" x2="379.977" y2="830.568" style="stroke:#181818;stroke-width:0.5;"/><text x="176.5" y="849.534" fill="#000" font-size="14" textLength="169.413">+name / multipliers / type</text><line x1="171.5" y1="857.636" x2="379.977" y2="857.636" style="stroke:#181818;stroke-width:1;"/><text x="176.5" y="876.602" fill="#000" font-size="14" textLength="198.477">Demand and control patterns.</text></g><!--class WNTREPANETControl--><g class="entity" data-qualified-name="Components.WNTREPANETControl" id="ent0010" data-source-line="92"><rect x="426" y="798.568" width="246.667" height="86.136" fill="#FFFFE0" style="stroke:#181818;stroke-width:0.5;" rx="2.5" ry="2.5"/><ellipse cx="474.86" cy="814.568" rx="11" ry="11" fill="#ADD1B2" style="stroke:#181818;stroke-width:1;"/><path d="M477.829,820.209 Q477.25,820.505 476.61,820.646 Q475.969,820.802 475.266,820.802 Q472.766,820.802 471.438,819.162 Q470.125,817.505 470.125,814.38 Q470.125,811.255 471.438,809.599 Q472.766,807.943 475.266,807.943 Q475.969,807.943 476.61,808.099 Q477.266,808.255 477.829,808.552 L477.829,811.271 Q477.204,810.693 476.61,810.427 Q476.016,810.146 475.391,810.146 Q474.047,810.146 473.36,811.224 Q472.672,812.287 472.672,814.38 Q472.672,816.474 473.36,817.552 Q474.047,818.615 475.391,818.615 Q476.016,818.615 476.61,818.349 Q477.204,818.068 477.829,817.49 L477.829,820.209 Z " fill="#000"/><text x="495.36" y="820" fill="#000" font-size="14" textLength="140.447">WNTREPANETControl</text><line x1="427" y1="830.568" x2="671.667" y2="830.568" style="stroke:#181818;stroke-width:0.5;"/><text x="432" y="849.534" fill="#000" font-size="14" textLength="207.073">+type / condition / then_actions</text><line x1="427" y1="857.636" x2="671.667" y2="857.636" style="stroke:#181818;stroke-width:1;"/><text x="432" y="876.602" fill="#000" font-size="14" textLength="234.667">Time-of-day or pattern-of-day rules.</text></g><!--class WNTREPANETSource--><g class="entity" data-qualified-name="Components.WNTREPANETSource" id="ent0011" data-source-line="98"><rect x="718.5" y="770.068" width="235.579" height="143.34" fill="#FFFFE0" style="stroke:#181818;stroke-width:0.5;" rx="2.5" ry="2.5"/><ellipse cx="763.657" cy="786.068" rx="11" ry="11" fill="#ADD1B2" style="stroke:#181818;stroke-width:1;"/><path d="M766.626,791.709 Q766.047,792.005 765.407,792.146 Q764.766,792.302 764.063,792.302 Q761.563,792.302 760.235,790.662 Q758.922,789.005 758.922,785.88 Q758.922,782.755 760.235,781.099 Q761.563,779.443 764.063,779.443 Q764.766,779.443 765.407,779.599 Q766.063,779.755 766.626,780.052 L766.626,782.771 Q766.001,782.193 765.407,781.927 Q764.813,781.646 764.188,781.646 Q762.844,781.646 762.157,782.724 Q761.469,783.787 761.469,785.88 Q761.469,787.974 762.157,789.052 Q762.844,790.115 764.188,790.115 Q764.813,790.115 765.407,789.849 Q766.001,789.568 766.626,788.99 L766.626,791.709 Z " fill="#000"/><text x="784.157" y="791.5" fill="#000" font-size="14" textLength="136.765">WNTREPANETSource</text><line x1="719.5" y1="802.068" x2="953.079" y2="802.068" style="stroke:#181818;stroke-width:0.5;"/><text x="724.5" y="821.034" fill="#000" font-size="14" textLength="126.531">+type / node_name</text><text x="724.5" y="840.102" fill="#000" font-size="14" textLength="217.433">+source_type / strength / pattern</text><line x1="719.5" y1="848.204" x2="953.079" y2="848.204" style="stroke:#181818;stroke-width:1;"/><text x="724.5" y="867.17" fill="#000" font-size="14" textLength="223.579">WNTR names the constituent field</text><text x="724.5" y="886.238" fill="#000" font-size="14" textLength="213.289">source_type, not param, and the</text><text x="724.5" y="905.306" fill="#000" font-size="14" textLength="185.051">modulating pattern pattern.</text></g><!--class WNTREPANETOptions--><g class="entity" data-qualified-name="Components.WNTREPANETOptions" id="ent0012" data-source-line="107"><rect x="171" y="953.068" width="267.499" height="189.475" fill="#FFFFE0" style="stroke:#181818;stroke-width:0.5;" rx="2.5" ry="2.5"/><ellipse cx="228.701" cy="969.068" rx="11" ry="11" fill="#ADD1B2" style="stroke:#181818;stroke-width:1;"/><path d="M231.67,974.709 Q231.091,975.005 230.451,975.146 Q229.81,975.302 229.107,975.302 Q226.607,975.302 225.279,973.662 Q223.966,972.005 223.966,968.88 Q223.966,965.755 225.279,964.099 Q226.607,962.443 229.107,962.443 Q229.81,962.443 230.451,962.599 Q231.107,962.755 231.67,963.052 L231.67,965.771 Q231.045,965.193 230.451,964.927 Q229.857,964.646 229.232,964.646 Q227.888,964.646 227.201,965.724 Q226.513,966.787 226.513,968.88 Q226.513,970.974 227.201,972.052 Q227.888,973.115 229.232,973.115 Q229.857,973.115 230.451,972.849 Q231.045,972.568 231.67,971.99 L231.67,974.709 Z " fill="#000"/><text x="249.201" y="974.5" fill="#000" font-size="14" textLength="143.597">WNTREPANETOptions</text><line x1="172" y1="985.068" x2="437.499" y2="985.068" style="stroke:#181818;stroke-width:0.5;"/><text x="177" y="1004.034" fill="#000" font-size="14" textLength="222.361">+time_options / hydraulic_options</text><text x="177" y="1023.102" fill="#000" font-size="14" textLength="218.203">+report_options / quality_options</text><text x="177" y="1042.17" fill="#000" font-size="14" textLength="232.091">+reaction_options / energy_options</text><text x="177" y="1061.238" fill="#000" font-size="14" textLength="217.657">+graphics_options / user_options</text><line x1="172" y1="1069.34" x2="437.499" y2="1069.34" style="stroke:#181818;stroke-width:1;"/><text x="177" y="1088.306" fill="#000" font-size="14" textLength="79.646">+attrs / type</text><line x1="172" y1="1096.408" x2="437.499" y2="1096.408" style="stroke:#181818;stroke-width:1;"/><text x="177" y="1115.373" fill="#000" font-size="14" textLength="255.499">A single instance on the network, not a</text><text x="177" y="1134.441" fill="#000" font-size="14" textLength="140.867">list-backed collection.</text></g><!--class WNTREPANETNetworkInfo--><g class="entity" data-qualified-name="Components.WNTREPANETNetworkInfo" id="ent0013" data-source-line="119"><rect x="483" y="985.568" width="267.499" height="124.272" fill="#FFFFE0" style="stroke:#181818;stroke-width:0.5;" rx="2.5" ry="2.5"/><ellipse cx="525.42" cy="1001.568" rx="11" ry="11" fill="#ADD1B2" style="stroke:#181818;stroke-width:1;"/><path d="M528.389,1007.209 Q527.811,1007.505 527.17,1007.646 Q526.53,1007.802 525.826,1007.802 Q523.326,1007.802 521.998,1006.162 Q520.686,1004.505 520.686,1001.38 Q520.686,998.255 521.998,996.599 Q523.326,994.943 525.826,994.943 Q526.53,994.943 527.17,995.099 Q527.826,995.255 528.389,995.552 L528.389,998.271 Q527.764,997.693 527.17,997.427 Q526.576,997.146 525.951,997.146 Q524.608,997.146 523.92,998.224 Q523.233,999.287 523.233,1001.38 Q523.233,1003.474 523.92,1004.552 Q524.608,1005.615 525.951,1005.615 Q526.576,1005.615 527.17,1005.349 Q527.764,1005.068 528.389,1004.49 L528.389,1007.209 Z " fill="#000"/><text x="545.514" y="1007" fill="#000" font-size="14" textLength="174.565">WNTREPANETNetworkInfo</text><line x1="484" y1="1017.568" x2="749.499" y2="1017.568" style="stroke:#181818;stroke-width:0.5;"/><text x="489" y="1036.534" fill="#000" font-size="14" textLength="181.677">+name / comment / version</text><text x="489" y="1055.602" fill="#000" font-size="14" textLength="119.238">+references / type</text><line x1="484" y1="1063.704" x2="749.499" y2="1063.704" style="stroke:#181818;stroke-width:1;"/><text x="489" y="1082.67" fill="#000" font-size="14" textLength="255.499">A single instance on the network, not a</text><text x="489" y="1101.738" fill="#000" font-size="14" textLength="140.867">list-backed collection.</text></g><!--class WNTREPANETType--><g class="entity" data-qualified-name="WNTREPANETType" id="ent0001" data-source-line="29"><rect x="7" y="115.068" width="278.797" height="241.023" fill="#90EE90" style="stroke:#181818;stroke-width:0.5;" rx="2.5" ry="2.5"/><ellipse cx="85.813" cy="137.774" rx="11" ry="11" fill="#A9DCDF" style="stroke:#181818;stroke-width:1;"/><path d="M85.922,133.118 L84.766,138.196 L87.094,138.196 L85.922,133.118 Z M84.438,130.883 L87.422,130.883 L90.781,143.274 L88.328,143.274 L87.563,140.211 L84.281,140.211 L83.531,143.274 L81.094,143.274 L84.438,130.883 Z " fill="#000"/><text x="146.43" y="132.896" fill="#000" font-size="12" textLength="32.436" font-style="italic">«ABC»</text><text x="106.313" y="151.378" fill="#000" font-size="14" textLength="112.672" font-style="italic">WNTREPANETType</text><line x1="8" y1="160.48" x2="284.797" y2="160.48" style="stroke:#181818;stroke-width:0.5;"/><text x="13" y="179.446" fill="#000" font-size="14" textLength="129.262">+data: Dict[str, Any]</text><text x="13" y="198.514" fill="#000" font-size="14" textLength="209.131">+component_kind: Optional[str]</text><line x1="8" y1="206.616" x2="284.797" y2="206.616" style="stroke:#181818;stroke-width:1;"/><text x="13" y="225.582" fill="#000" font-size="14" textLength="57.778" font-style="italic">+type: str</text><text x="13" y="244.65" fill="#000" font-size="14" textLength="247.309">+validate(context) -> ValidationReport</text><text x="13" y="263.718" fill="#000" font-size="14" textLength="165.465">+as_dict() -> Dict[str, Any]</text><text x="13" y="282.785" fill="#000" font-size="14" textLength="101.962">+as_json() -> str</text><line x1="8" y1="290.887" x2="284.797" y2="290.887" style="stroke:#181818;stroke-width:1;"/><text x="13" y="309.853" fill="#000" font-size="14" textLength="257.753">One data dict, read-only accessors, and</text><text x="13" y="328.921" fill="#000" font-size="14" textLength="266.797">no rules. Subclasses cannot be extended</text><text x="13" y="347.989" fill="#000" font-size="14" textLength="114.072">to add validation.</text></g><g class="entity" data-qualified-name="GMN2" id="ent0003" data-source-line="44"><path d="M331,168.568 L331,232.068 L286.22,236.068 L331,240.068 L331,302.51 A0,0 0 0 0 331,302.51 L552.291,302.51 A0,0 0 0 0 552.291,302.51 L552.291,178.568 L542.291,168.568 L331,168.568 A0,0 0 0 0 331,168.568" style="stroke:#181818;stroke-width:0.5;" fill="#FEFFDD"/><path d="M542.291,168.568 L542.291,178.568 L552.291,178.568 L542.291,168.568" style="stroke:#181818;stroke-width:0.5;" fill="#FEFFDD"/><text x="337" y="187.465" fill="#000" font-size="13" textLength="173.719">The only abstract member is</text><text x="337" y="205.171" fill="#000" font-size="13" textLength="28.951" font-weight="700">type</text><text x="365.951" y="205.171" fill="#000" font-size="13" textLength="153.894">. validate() carries no rule</text><text x="337" y="222.877" fill="#000" font-size="13" textLength="194.974">logic; it delegates to the engine,</text><text x="337" y="240.583" fill="#000" font-size="13" textLength="200.291">so subclasses need no overrides.</text><text x="337" y="258.289" fill="#000" font-size="13"> </text><text x="337" y="275.995" fill="#000" font-size="13" textLength="189.241">Assigning .data never validates</text><text x="337" y="293.701" fill="#000" font-size="13" textLength="104.039">and never raises.</text></g><!--class WNTREPANETNetwork--><g class="entity" data-qualified-name="WNTREPANETNetwork" id="ent0014" data-source-line="131"><rect x="1152" y="47.068" width="297.179" height="377.087" fill="#90EE90" style="stroke:#181818;stroke-width:0.5;" rx="2.5" ry="2.5"/><ellipse cx="1222.399" cy="63.068" rx="11" ry="11" fill="#ADD1B2" style="stroke:#181818;stroke-width:1;"/><path d="M1225.367,68.709 Q1224.789,69.005 1224.149,69.146 Q1223.508,69.302 1222.805,69.302 Q1220.305,69.302 1218.977,67.662 Q1217.664,66.005 1217.664,62.88 Q1217.664,59.755 1218.977,58.099 Q1220.305,56.443 1222.805,56.443 Q1223.508,56.443 1224.149,56.599 Q1224.805,56.755 1225.367,57.052 L1225.367,59.771 Q1224.742,59.193 1224.149,58.927 Q1223.555,58.646 1222.93,58.646 Q1221.586,58.646 1220.899,59.724 Q1220.211,60.787 1220.211,62.88 Q1220.211,64.974 1220.899,66.052 Q1221.586,67.115 1222.93,67.115 Q1223.555,67.115 1224.149,66.849 Q1224.742,66.568 1225.367,65.99 L1225.367,68.709 Z " fill="#000"/><text x="1242.899" y="68.5" fill="#000" font-size="14" textLength="147.881">WNTREPANETNetwork</text><line x1="1153" y1="79.068" x2="1448.179" y2="79.068" style="stroke:#181818;stroke-width:0.5;"/><text x="1158" y="98.034" fill="#000" font-size="14" textLength="285.179">+COMPONENT_COLLECTIONS: Tuple[str, ...]</text><line x1="1153" y1="106.136" x2="1448.179" y2="106.136" style="stroke:#181818;stroke-width:1;"/><text x="1158" y="125.102" fill="#000" font-size="14" textLength="207.143">+from_file(filename, ...) -> Tuple</text><text x="1158" y="144.17" fill="#000" font-size="14" textLength="210.083">+from_json(json_src, ...) -> Tuple</text><line x1="1153" y1="152.272" x2="1448.179" y2="152.272" style="stroke:#181818;stroke-width:1;"/><text x="1158" y="171.238" fill="#000" font-size="14" textLength="205.323">+build_index() -> NetworkIndex</text><text x="1158" y="190.306" fill="#000" font-size="14" textLength="178.121">+invalidate_index() -> None</text><text x="1158" y="209.373" fill="#000" font-size="14" textLength="247.309">+validate(context) -> ValidationReport</text><text x="1158" y="228.441" fill="#000" font-size="14" textLength="154.867">+report() -> Dict[str, int]</text><text x="1158" y="247.509" fill="#000" font-size="14" textLength="213.555">+verbose_report() -> Dict[str, int]</text><text x="1158" y="266.577" fill="#000" font-size="14" textLength="199.723">+component(collection, name)</text><text x="1158" y="285.645" fill="#000" font-size="14" textLength="181.677">+name / comment / version</text><line x1="1153" y1="293.747" x2="1448.179" y2="293.747" style="stroke:#181818;stroke-width:1;"/><text x="1158" y="312.713" fill="#000" font-size="14" textLength="172.759">+as_dict() / as_json(indent)</text><line x1="1153" y1="320.815" x2="1448.179" y2="320.815" style="stroke:#181818;stroke-width:1;"/><text x="1158" y="339.781" fill="#000" font-size="14" textLength="201.977">from_file and from_json return</text><text x="1158" y="358.849" fill="#000" font-size="14" textLength="231.769">(network, errors, warnings). Exactly</text><text x="1158" y="377.917" fill="#000" font-size="14" textLength="244.691">one of network or errors is not None.</text><text x="1158" y="396.985" fill="#000" font-size="14" textLength="258.845">Both .inp and WNTR .json are accepted;</text><text x="1158" y="416.053" fill="#000" font-size="14" textLength="217.531">.inp is converted with WNTR first.</text></g><!--class WNTRNetworkStatistics--><g class="entity" data-qualified-name="WNTRNetworkStatistics" id="ent0015" data-source-line="154"><rect x="1003" y="512.068" width="284.831" height="170.408" fill="#D3D3D3" style="stroke:#181818;stroke-width:0.5;" rx="2.5" ry="2.5"/><ellipse cx="1063.9" cy="528.068" rx="11" ry="11" fill="#ADD1B2" style="stroke:#181818;stroke-width:1;"/><path d="M1066.869,533.709 Q1066.29,534.005 1065.65,534.146 Q1065.009,534.302 1064.306,534.302 Q1061.806,534.302 1060.478,532.662 Q1059.165,531.005 1059.165,527.88 Q1059.165,524.755 1060.478,523.099 Q1061.806,521.443 1064.306,521.443 Q1065.009,521.443 1065.65,521.599 Q1066.306,521.755 1066.869,522.052 L1066.869,524.771 Q1066.244,524.193 1065.65,523.927 Q1065.056,523.646 1064.431,523.646 Q1063.087,523.646 1062.4,524.724 Q1061.712,525.787 1061.712,527.88 Q1061.712,529.974 1062.4,531.052 Q1063.087,532.115 1064.431,532.115 Q1065.056,532.115 1065.65,531.849 Q1066.244,531.568 1066.869,530.99 L1066.869,533.709 Z " fill="#000"/><text x="1084.4" y="533.5" fill="#000" font-size="14" textLength="154.531">WNTRNetworkStatistics</text><line x1="1004" y1="544.068" x2="1286.831" y2="544.068" style="stroke:#181818;stroke-width:0.5;"/><text x="1009" y="563.034" fill="#000" font-size="14" textLength="116.536">+__init__(network)</text><line x1="1004" y1="571.136" x2="1286.831" y2="571.136" style="stroke:#181818;stroke-width:1;"/><text x="1009" y="590.102" fill="#000" font-size="14" textLength="198.911">+get_component_types(name)</text><text x="1009" y="609.17" fill="#000" font-size="14" textLength="242.395">+get_number_of_components(name)</text><text x="1009" y="628.238" fill="#000" font-size="14" textLength="154.867">+report() -> Dict[str, int]</text><line x1="1004" y1="636.34" x2="1286.831" y2="636.34" style="stroke:#181818;stroke-width:1;"/><text x="1009" y="655.306" fill="#000" font-size="14" textLength="272.831">Counts components grouped by concrete</text><text x="1009" y="674.373" fill="#000" font-size="14" textLength="32.452">type.</text></g><!--class NetworkIndex--><g class="entity" data-qualified-name="NetworkIndex" id="ent0016" data-source-line="165"><rect x="1333" y="464.068" width="246.625" height="265.747" fill="#D3D3D3" style="stroke:#181818;stroke-width:0.5;" rx="2.5" ry="2.5"/><ellipse cx="1405.247" cy="480.068" rx="11" ry="11" fill="#ADD1B2" style="stroke:#181818;stroke-width:1;"/><path d="M1408.215,485.709 Q1407.637,486.005 1406.997,486.146 Q1406.356,486.302 1405.653,486.302 Q1403.153,486.302 1401.825,484.662 Q1400.512,483.005 1400.512,479.88 Q1400.512,476.755 1401.825,475.099 Q1403.153,473.443 1405.653,473.443 Q1406.356,473.443 1406.997,473.599 Q1407.653,473.755 1408.215,474.052 L1408.215,476.771 Q1407.59,476.193 1406.997,475.927 Q1406.403,475.646 1405.778,475.646 Q1404.434,475.646 1403.747,476.724 Q1403.059,477.787 1403.059,479.88 Q1403.059,481.974 1403.747,483.052 Q1404.434,484.115 1405.778,484.115 Q1406.403,484.115 1406.997,483.849 Q1407.59,483.568 1408.215,482.99 L1408.215,485.709 Z " fill="#000"/><text x="1425.747" y="485.5" fill="#000" font-size="14" textLength="93.632">NetworkIndex</text><line x1="1334" y1="496.068" x2="1578.625" y2="496.068" style="stroke:#181818;stroke-width:0.5;"/><text x="1339" y="515.034" fill="#000" font-size="14" textLength="214.339">+nodes / links / curves / patterns</text><text x="1339" y="534.102" fill="#000" font-size="14" textLength="124.894">+sources / controls</text><line x1="1334" y1="542.204" x2="1578.625" y2="542.204" style="stroke:#181818;stroke-width:1;"/><text x="1339" y="561.17" fill="#000" font-size="14" textLength="198.309">+collection(name) / has(name)</text><text x="1339" y="580.238" fill="#000" font-size="14" textLength="151.185">+curves_of_type(name)</text><text x="1339" y="599.306" fill="#000" font-size="14" textLength="146.551">+duplicates(collection)</text><text x="1339" y="618.373" fill="#000" font-size="14" textLength="157.527">+counts() -> Dict[str, int]</text><line x1="1334" y1="626.475" x2="1578.625" y2="626.475" style="stroke:#181818;stroke-width:1;"/><text x="1339" y="645.441" fill="#000" font-size="14" textLength="228.143">Name -> component resolution for</text><text x="1339" y="664.509" fill="#000" font-size="14" textLength="183.483">network rules. Built lazily by</text><text x="1339" y="683.577" fill="#000" font-size="14" textLength="208.739">build_index() and cached on the</text><text x="1339" y="702.645" fill="#000" font-size="14" textLength="234.625">network; invalidate_index() discards</text><text x="1339" y="721.713" fill="#000" font-size="14" textLength="12.418">it.</text></g><g class="entity" data-qualified-name="Access" id="ent0021" data-source-line="195"><path d="M1625,500.568 L1625,693.922 L1870.107,693.922 L1870.107,510.568 L1860.107,500.568 L1625,500.568" style="stroke:#181818;stroke-width:0.5;" fill="#FEFFDD"/><path d="M1860.107,500.568 L1860.107,510.568 L1870.107,510.568 L1860.107,500.568" style="stroke:#181818;stroke-width:1;" fill="#FEFFDD"/><text x="1631" y="519.465" fill="#000" font-size="13" textLength="224.107" font-weight="700">Two shapes of attribute, one class.</text><line x1="1626" y1="523.274" x2="1869.107" y2="523.274" style="stroke:#181818;stroke-width:1;stroke-dasharray:1,2;"/><text x="1631" y="541.171" fill="#000" font-size="13" textLength="139.399">Six collections are lists:</text><text x="1631" y="558.877" fill="#000" font-size="13" textLength="180.882">curves, patterns, nodes, links,</text><text x="1631" y="576.583" fill="#000" font-size="13" textLength="107.289">sources, controls.</text><line x1="1626" y1="584.392" x2="1869.107" y2="584.392" style="stroke:#181818;stroke-width:1;stroke-dasharray:1,2;"/><text x="1631" y="602.289" fill="#000" font-size="13" textLength="152.659">Two are single instances:</text><text x="1631" y="619.995" fill="#000" font-size="13" textLength="136.331">options, network_info.</text><line x1="1626" y1="627.804" x2="1869.107" y2="627.804" style="stroke:#181818;stroke-width:1;stroke-dasharray:1,2;"/><text x="1631" y="645.701" fill="#000" font-size="13" textLength="196.222">Both are reached the same way,</text><text x="1631" y="663.407" fill="#000" font-size="13" textLength="143.806">n.e. network.nodes and</text><text x="1631" y="681.113" fill="#000" font-size="13" textLength="103.454">network.options.</text></g><!--reverse link WNTREPANETType to Components--><g class="link" data-entity-1="ent0001" data-entity-2="ent0005" id="lnk17" data-source-line="185" data-link-type="extension"><path d="M146.5,374.198 C146.5,399.658 146.5,408.914 146.5,435.603 C146.5,448.948 146.5,462.15 146.5,474.916 C146.5,478.107 146.5,481.271 146.5,484.404" style="stroke:#181818;stroke-width:1;" fill="none" id="WNTREPANETType-backto-Components" codeLine="185"/><polygon points="146.5,356.198,140.5,374.198,152.5,374.198,146.5,356.198" fill="none" style="stroke:#181818;stroke-width:1;stroke-linejoin:miter;stroke-miterlimit:10;"/></g><!--reverse link WNTREPANETNetwork to Components--><g class="link" data-entity-1="ent0014" data-entity-2="ent0005" id="lnk18" data-source-line="189" data-link-type="aggregation"><path d="M1139.87,390.068 C835.41,390.068 181.25,390.068 181.25,390.068 C181.25,390.068 181.25,403.005 181.25,422.412 C181.25,432.115 181.25,443.435 181.25,455.564 C181.25,461.628 181.25,467.895 181.25,474.263 C181.25,477.447 181.25,480.656 181.25,483.877" style="stroke:#181818;stroke-width:1;" fill="none" id="WNTREPANETNetwork-backto-Components" codeLine="189"/><polygon points="1151.87,390.068,1145.87,386.068,1139.87,390.068,1145.87,394.068,1151.87,390.068" fill="none" style="stroke:#181818;stroke-width:1;stroke-linejoin:miter;stroke-miterlimit:10;"/><text x="512.88" y="385.965" fill="#000" font-size="13" textLength="32.344">owns</text></g><!--reverse link WNTREPANETNetwork to NetworkIndex--><g class="link" data-entity-1="ent0014" data-entity-2="ent0016" id="lnk19" data-source-line="191" data-link-type="composition"><path d="M1391,436.258 C1391,449.608 1391,450.908 1391,463.848" style="stroke:#181818;stroke-width:1;" fill="none" id="WNTREPANETNetwork-backto-NetworkIndex" codeLine="191"/><polygon points="1391,424.258,1387,430.258,1391,436.258,1395,430.258,1391,424.258" fill="#181818" style="stroke:#181818;stroke-width:1;stroke-linejoin:miter;stroke-miterlimit:10;"/><text x="1322" y="439.955" fill="#000" font-size="13" textLength="68.159">index (lazy)</text></g><!--link WNTREPANETNetwork to WNTRNetworkStatistics--><g class="link" data-entity-1="ent0014" data-entity-2="ent0015" id="lnk20" data-source-line="192" data-link-type="dependency"><path d="M1220,424.258 C1220,454.898 1220,480.238 1220,506.748" style="stroke:#181818;stroke-width:1;stroke-dasharray:7,7;" fill="none" id="WNTREPANETNetwork-to-WNTRNetworkStatistics" codeLine="192"/><polygon points="1220,511.748,1224,502.748,1220,506.748,1216,502.748,1220,511.748" fill="#181818" style="stroke:#181818;stroke-width:1;stroke-linejoin:miter;stroke-miterlimit:10;"/><text x="1145" y="463.895" fill="#000" font-size="13" textLength="74.373">summarises</text></g><!--link WNTREPANETNetwork to Access--><g class="link" data-entity-1="ent0014" data-entity-2="ent0021" id="lnk22" data-source-line="209" data-link-type="association"><path d="M1449.03,236.068 C1579.11,236.068 1747.5,236.068 1747.5,236.068 C1747.5,236.068 1747.5,393.398 1747.5,500.328" style="stroke:#181818;stroke-width:1;stroke-dasharray:7,7;" fill="none" id="WNTREPANETNetwork-Access" codeLine="209"/></g><g class="legend" data-source-line="20"><rect x="1771.085" y="1187.068" width="95.022" height="71.204" fill="#DDD" style="stroke:#000;stroke-width:1;" rx="7.5" ry="7.5"/><rect x="1776.085" y="1194.068" width="85.022" height="19.068" fill="#90EE90" style="stroke:none;"/><text x="1779.725" y="1209.034" fill="#000" font-size="14" textLength="75.992">Model base</text><rect x="1776.085" y="1213.136" width="85.022" height="19.068" fill="#FFFFE0" style="stroke:none;"/><text x="1779.725" y="1228.102" fill="#000" font-size="14" textLength="77.742">Component</text><rect x="1776.085" y="1232.204" width="85.022" height="19.068" fill="#D3D3D3" style="stroke:none;"/><text x="1779.725" y="1247.17" fill="#000" font-size="14" textLength="51.128">Derived</text><line x1="1776.085" y1="1194.068" x2="1861.107" y2="1194.068" style="stroke:#000;stroke-width:1;"/><line x1="1776.085" y1="1213.136" x2="1861.107" y2="1213.136" style="stroke:#000;stroke-width:1;"/><line x1="1776.085" y1="1232.204" x2="1861.107" y2="1232.204" style="stroke:#000;stroke-width:1;"/><line x1="1776.085" y1="1251.272" x2="1861.107" y2="1251.272" style="stroke:#000;stroke-width:1;"/><line x1="1776.085" y1="1194.068" x2="1776.085" y2="1251.272" style="stroke:#000;stroke-width:1;"/><line x1="1861.107" y1="1194.068" x2="1861.107" y2="1251.272" style="stroke:#000;stroke-width:1;"/></g><?plantuml-src jLZVR-Cs4dxtNq6a3vkajlOUhY_PlG3Uh87RkzGEOgDzE1G2BT4sBnAf8wauRdV_ztupb2mbiTCMy0NOE4iEv_TyC-DtuX-d-1cy4wgIHeLAEg-S68r4s2XHsbmLef0xvGRlG7E7MstMObdh8lSWqLv8amiVREKJCRKumVL6EIKUPQ5p6PJ_839RLjOe4vBsyFm2tC1RhOb21ClYb5bheuPYkz7PHXJw4LVQFDCiRJXeQz98dbHrMIIitimKEp5NZyhfi4icz_UpUx7I9eTENfJoGGafdAgi2s3BZ8QiVjXOhqXB9LREbk3KryROmCS2OgMGtkkrASaOq9t6-OEWGw74v6uydIpOoHG2yIDx_vQzxn-qWGTaAR82Aen3S7fP1_KbisQkVrNYRpsI0dg7NQK4BDtOteK1HwygyVSVUeTEcWS-xBFm6vdRBGLp9Gkl1XkTmoDb5NQYLELIEJyO87eAtdDwlGa38Rv-_AwWFzTEANFTQB-KyEpNtkrE5ONTNekRDYUUtQwTt5sBpmZWeyfn0_vHoW3E7ftY1tm-ZUUJax6JIn-Sp4ACY_XvkhYFSLnG03v-77-wkRuMFS-8ts3lzvnCL-Appi9_m60encRt2r_iYoL5CF8hCQiesML1P4G1cKJsMolucw1GNw467L_iImoP4THJk12ZQ_7JlchkEV-PKleqX_npfZYW2Ux_wws9zv4z2vyP5Mk1NWzHKJ8VMIezcMNAU-iybnKeZHMkBXIWOLulsK6ew4mQAgabykaf8BIAA840Ciz5Lzt9uDjW03eLyqlOrGlVuj42LHe5jq68kIcqn-tb9JdcyZBfN781uSvfAD5e1hB2hdNsGUXm58z0vAtmdGL68Jd1mG9f70h39mFGZ1aPg6GIzeuX8EfW41I4DV7KIUtf6TKF6NdAzBwP_NWtcqwcYpc3ulw_wStizdPoi_WocyxX8RRGkXnO3GIiApZZdH3Y_2oh7O3tR2ZEAXc2SeR_PkWu6pADE0F2FF2njxNB8ZNbcxE5FoDirubAXDTFm28VHakPFK1APej2PHHTP4XLrD1XQq5CFGNufuqFqe3RbR2SzBxn6AZSGwhDoYOdyrC5bUHQYRCEY7hgdI7vEuZoeezTNC0lgtqAzxoceYeYnwMKYJ1hGMwELPOaoIzCmIKL2n_Hq8OJy3qNDJwCB5LphqfDuKWpgrOhdMbI-Rr0Y9plC_fNRTY6eRW7rhj7go5j0Op7xRV10TLl4Sl3gbEK_vJgBvLjBkvqXVvvLvVLa13eKHrJuOPIxh0EFTRugAn6EFeo28o03Hk0q50ysg8k8R9rKBPBZecyYxbz96PHMbaNGLU5HhTh8jAN_5cLb9xqhqbzqHRCKQat3U5Rfe9PhYc297EZJ2fZJlPbBtIfHdOrokKEDTpARKyYvXxJOSub-xQtAMTxgHUhF6rkaGH0nh2XU4J1VTL843im8WoiyHXlQihMbLP5paGzXd70ugcZdSQYM0oVTO5U041jnBIVHqsRDR1ns3RuB6s1vRtOx78dwq9dxLb35WV47k7_Qa1usBqYYs7f4IgZtFeb7IQQ2kEixz7LDCVsgVPrnCLy8DN6Bo4IRO-zss1ZzA5asiE0UzHbqyZX2y3rpLh0M596n47_yk2uzyCA7OHG-_-ezxTJzaSO_VFi_jydutZ4emTcleEj-12qDZCURHtfIXVgd7vH89Y2vp5-r57ne4Q_Kk-orrGDGzxRq4XpzHIdkdtqSS8KpLw49lIC36tmBmwNiOnUpfP0xpXR8ecMMBhIFo3R3yFdNKeCEIKl1d-Gd8t9tP3xVZ_GacKcNBH4UpSp_EpT2HD2pTXslazNp7iytcwbeqdFNoHYyWGWA7OWix4LDSI4ov6SXYtAS_8YvVCdhCaYmQR5yXWl4nOeiJRJ35q5bNy08TFWCPmDkt0ejXfF-SLAEnzuIExohudcF20O0DtCYswhQb8mHLXrIDFMf8lEKsiLqcxvuBP_tdcQRarDqtLgLnrTd-JDMBAG6rlJDDMz1ZpQke9XonrPcS7bb6Wal6TRFqjVcyIJAQBBCoab0y-lNNFoWww5-TXVUKxjBEzoArf3tK7sBOiioN3Ih7UHexvqHYDRBq6RDsphMzwOKlBYTkyEUD1ZWk7UlxAqRxMvr6nHdr2_GHJoLusbPqavzxoYUHQHsGOEZK3RiVXmgBHpxR4GvUGA7PFfT31xFxaTCy3zyylT_8Hy9oY5NTF6TEmcxImVzybciq4nxjT2-XOY6RpSpR-EHhqPdsnVTAr9s2sQzHiRJ9nLjhPfSRJpjFiBvfYYm3gvmlQOlrHIBh4szfLf-uLzfewuOWq61mWlGVYi9Au41rIS8pDs5mTU9Cdr4O2umbvRbjBHEjhiszXynhp8ymwz80it4c10s2RRxvs6x62EGd9vILX5o3Q7kvwv2816xlDND7bm4GttPJcCbJkCXHktRAxHuRv4avOnQK7CNcsA1BjLir4-NnIRbmosz9G6DYeCYeMdojlA7GarjAasJvE89SsN5yrPmx-_h1_oSEkqtm40?></g></svg>